<svg xmlns="http://www.w3.org/2000/svg" xmlns:xlink="http://www.w3.org/1999/xlink"><symbol id="sprite-agriculture" viewBox="0 0 128 128"><title>agriculture</title><linearGradient id="a" gradientUnits="userSpaceOnUse" x1="99.703" x2="28.297" y1="89.047" y2="17.641"><stop offset="0" stop-color="#5f69e2"/><stop offset="1" stop-color="#00b5bc"/></linearGradient><path d="M65.75 84.125v13.569a1.75 1.75 0 01-3.5 0V84.125a1.75 1.75 0 013.5 0zM47.928 13.063l.4.076a1.786 1.786 0 00.342.034A1.75 1.75 0 0049 9.706l-.419-.081a1.75 1.75 0 00-.656 3.438zM84.721 23.9c1.575-1.576 2.667-7.335 3.095-11.879-4.373.409-10.231 1.445-11.88 3.094a6.207 6.207 0 00-1.108 7.235l5-4.814a1.75 1.75 0 112.428 2.521L68.921 32.9c-1.936 1.992-3.02 5.568-3.146 10.312H84a1.75 1.75 0 011.75 1.75v8.5A1.75 1.75 0 0184 55.208H65.75v19.148a23.394 23.394 0 0111.375 1.331V61.458a1.75 1.75 0 013.5 0v39.792a16.625 16.625 0 01-33.25 0V55.208H44a1.75 1.75 0 01-1.75-1.75v-8.5A1.75 1.75 0 0144 43.209h18.206a15.418 15.418 0 00-4.35-9.906l-.492-.551A12.267 12.267 0 0142 31.161c-4.446-4.446-5.37-19.266-5.46-20.941a1.747 1.747 0 01.51-1.332 1.785 1.785 0 011.332-.51c.068 0 1.7.094 4.051.351a1.75 1.75 0 01-.379 3.479c-.7-.076-1.334-.137-1.878-.186.5 5.908 1.941 14.307 4.3 16.665a8.76 8.76 0 0010.516 1.407l-6.572-7.367a1.75 1.75 0 112.611-2.33l6.592 7.39a8.759 8.759 0 00-.773-11.475 7.435 7.435 0 00-2.35-1.421 1.75 1.75 0 111.375-3.219 10.793 10.793 0 013.446 2.165 12.26 12.26 0 01.658 16.6l.434.486a18.755 18.755 0 013.156 4.351 13.2 13.2 0 012.879-4.853l5.777-5.564a9.719 9.719 0 011.231-12.211c3.41-3.411 14.057-4.15 16.156-4.264a1.75 1.75 0 011.842 1.842c-.113 2.1-.854 12.746-4.264 16.156a9.664 9.664 0 01-5.014 2.667 1.784 1.784 0 01-.335.032 1.75 1.75 0 01-.331-3.469 6.177 6.177 0 003.211-1.71zM64.586 78.1a1.734 1.734 0 01-.586.108c-4.27.885-8.673.009-13.122-2.6v25.642a13.125 13.125 0 0026.25 0V79.48a19.762 19.762 0 00-12.542-1.38zM62.25 55.208H50.875v16.219c3.932 2.76 7.747 3.943 11.375 3.509zm20-8.5h-36.5v5h36.5z" fill="url(#a)"/></symbol><use xlink:href="#sprite-agriculture" width="512" height="512"/><view id="sprite-agriculture-fragment" viewBox="0 0 512 512"/><symbol id="sprite-biology" viewBox="0 0 128 128"><title>biology</title><linearGradient id="a" gradientUnits="userSpaceOnUse" x1="106.105" x2="21.896" y1="105.23" y2="21.02"><stop offset="0" stop-color="#5f69e2"/><stop offset="1" stop-color="#00b5bc"/></linearGradient><path d="M69.2 85.944c12.733-5.676 17-13.855 18.422-18.519a14.706 14.706 0 000-8.6c-1.611-5.294-6.755-14.745-23.052-20.33-.045-.016-.089-.035-.136-.047-.737-.251-1.488-.5-2.271-.73-18.179-5.436-24.686-16.9-26.946-23.249a2.244 2.244 0 011.846-2.985 2.206 2.206 0 011.165.172 1.724 1.724 0 00.172.088 2.27 2.27 0 011.052 1.227c1.982 5.546 7.738 15.573 24 20.436C74.945 36.843 83.3 42.368 88.293 49.83a26.4 26.4 0 014.623 12.982v.541c-.131 2.725-1.34 12.251-11.423 20.44a1.75 1.75 0 002.207 2.718c11.209-9.1 12.563-19.9 12.714-23.073v-.708A29.993 29.993 0 0091.2 47.884c-4.7-7.033-12.05-12.458-21.865-16.176 12.637-5.228 17.437-13.774 19.21-18.735a2.246 2.246 0 114.235 1.5 34.408 34.408 0 01-12.2 16.087 1.75 1.75 0 102.082 2.813 37.891 37.891 0 0013.418-17.73 5.745 5.745 0 10-10.827-3.848 24.861 24.861 0 01-3.509 6.452H62.5a1.75 1.75 0 000 3.5h16.115A36.443 36.443 0 0164 29.9a36.441 36.441 0 01-14.614-8.157H55a1.75 1.75 0 000-3.5h-8.743a24.857 24.857 0 01-3.479-6.372h35.255a1.75 1.75 0 100-3.5h-38.57a5.747 5.747 0 00-7.543 7.268c1.912 5.372 6.572 14.066 17.593 20.464a42.582 42.582 0 00-8.853 6.98 1.75 1.75 0 002.529 2.42 40.326 40.326 0 0110-7.471 55.048 55.048 0 005.608 2.27c-12.733 5.677-17 13.854-18.423 18.518a14.706 14.706 0 000 8.6c1.691 5.545 7.248 15.66 25.462 21.105 18.179 5.436 24.686 16.9 26.946 23.249a2.246 2.246 0 11-4.235 1.5c-1.982-5.546-7.738-15.573-24-20.436a61.083 61.083 0 01-10.522-4.179l-.045-.023A37.35 37.35 0 0139.707 76.42a26.4 26.4 0 01-4.623-12.982v-.542a23.057 23.057 0 011.016-5.508 1.75 1.75 0 00-3.348-1.021 26.632 26.632 0 00-1.166 6.446v.708A29.993 29.993 0 0036.8 78.366a39.356 39.356 0 0012.705 11.792c-11.21 6.526-15.811 15.467-17.585 20.45a5.746 5.746 0 004.719 7.634 5.988 5.988 0 00.708.043 5.689 5.689 0 002.083-.409h38.619a1.75 1.75 0 000-3.5H42.778c1.768-4.885 6.872-13.586 21.222-18.03a36.441 36.441 0 0114.614 8.154H54.5a1.75 1.75 0 000 3.5h27.243a24.865 24.865 0 013.51 6.454 5.724 5.724 0 005.4 3.827 5.971 5.971 0 00.707-.043 5.745 5.745 0 004.72-7.634c-2.38-6.682-9.012-18.514-26.88-24.66zm-13.945-5.8h17.487A45.5 45.5 0 0164 84.251a45.552 45.552 0 01-8.742-4.106zm17.487-34.039H55.257A45.5 45.5 0 0164 42a45.555 45.555 0 018.742 4.105zM45.133 69.812h22.388a1.75 1.75 0 100-3.5H43.7a11.225 11.225 0 01.025-6.467 22.854 22.854 0 016.828-10.239h26.9a24.531 24.531 0 015.414 6.833H51.75a1.75 1.75 0 000 3.5H84.3a11.222 11.222 0 010 6.373H75a1.75 1.75 0 000 3.5h7.866a24.61 24.61 0 01-5.418 6.833h-26.9a24.531 24.531 0 01-5.415-6.833zm-5.681 43.466a2.272 2.272 0 01-1.033 1.222 1.722 1.722 0 00-.246.124 2.207 2.207 0 01-1.112.143 2.245 2.245 0 01-1.845-2.985c1.7-4.785 6.3-13.595 17.934-19.631q2.609 1.3 5.511 2.392c-12.635 5.227-17.435 13.773-19.209 18.734zm-3.818-63.525c.1-.18.211-.361.322-.544a1.75 1.75 0 112.99 1.818c-.1.161-.192.323-.285.483a1.75 1.75 0 01-3.027-1.758z" fill="url(#a)"/></symbol><use xlink:href="#sprite-biology" y="512" width="512" height="512"/><view id="sprite-biology-fragment" viewBox="0 512 512 512"/><symbol id="sprite-brain" viewBox="0 0 128 128"><title>brain</title><linearGradient id="a" gradientUnits="userSpaceOnUse" x1="102.714" x2="25.286" y1="101.839" y2="24.411"><stop offset="0" stop-color="#5f69e2"/><stop offset="1" stop-color="#00b5bc"/></linearGradient><path d="M40.7 87.586a1.75 1.75 0 11-2.982 1.83 15.159 15.159 0 01-2.056-5.625 15.123 15.123 0 01-6.4-21.089 1.75 1.75 0 013.031 1.75 11.624 11.624 0 003.36 15.271 15.122 15.122 0 0114.988-13.3 1.75 1.75 0 010 3.5 11.621 11.621 0 00-11.607 11.61q0 .47.036.931a1.738 1.738 0 01-.005.26 11.649 11.649 0 001.635 4.862zm4.131 4.014a12.03 12.03 0 01-.565-.347 1.75 1.75 0 00-1.914 2.93q.363.239.739.454a1.75 1.75 0 101.74-3.037zm47.6-9.289c.013-.259.031-.518.031-.78a15.125 15.125 0 00-15.104-15.106 1.75 1.75 0 000 3.5 11.621 11.621 0 0111.608 11.608q0 .47-.036.931a1.739 1.739 0 00.006.278 11.625 11.625 0 01-23.186-1.236V41.427a11.812 11.812 0 00-23.543-1.388 13.168 13.168 0 00-8.384 19.427 1.739 1.739 0 00.2.373 12.319 12.319 0 0022.255-7.282 1.75 1.75 0 00-3.5 0 8.812 8.812 0 01-15.833 5.332 9.682 9.682 0 017.13-14.632 1.839 1.839 0 001.535-1.829 8.318 8.318 0 0116.637 0v40.078a11.649 11.649 0 01-11.633 11.636q-.577 0-1.14-.056a1.75 1.75 0 10-.34 3.484c.488.047.986.071 1.479.071A15.144 15.144 0 0064 88.55a15.122 15.122 0 0028.46-5.8 1.738 1.738 0 00-.025-.437zM69.418 34.528a8.323 8.323 0 0112.972 6.8c0 .047-.008.14-.008.187a1.75 1.75 0 001.54 1.737 9.682 9.682 0 017.13 14.632 8.812 8.812 0 01-15.833-5.332 1.75 1.75 0 00-3.5 0 12.3 12.3 0 0021.134 8.584 11.611 11.611 0 012.383 15.635 1.75 1.75 0 102.891 1.973 15.114 15.114 0 00-3.312-20.519 13.18 13.18 0 00-9.009-18.187 11.82 11.82 0 00-18.347-8.414 1.75 1.75 0 101.959 2.9zM64 22.375a1.75 1.75 0 001.75-1.75v-10.5a1.75 1.75 0 00-3.5 0v10.5a1.75 1.75 0 001.75 1.75zm36.239 2.036l-7.425 7.425a1.75 1.75 0 102.475 2.475l7.425-7.425a1.75 1.75 0 10-2.475-2.475zM117 61.375h-10.5a1.75 1.75 0 000 3.5H117a1.75 1.75 0 100-3.5zM95.289 91.939a1.75 1.75 0 00-2.475 2.475l7.425 7.425a1.75 1.75 0 002.475-2.475zM64 103.875a1.75 1.75 0 00-1.75 1.75v10.5a1.75 1.75 0 003.5 0v-10.5a1.75 1.75 0 00-1.75-1.75zM32.711 91.939l-7.425 7.425a1.75 1.75 0 102.475 2.475l7.425-7.425a1.75 1.75 0 00-2.475-2.475zM21.5 61.375H11a1.75 1.75 0 000 3.5h10.5a1.75 1.75 0 000-3.5zm11.211-27.064a1.75 1.75 0 002.475-2.475l-7.425-7.425a1.75 1.75 0 00-2.475 2.475z" fill="url(#a)"/></symbol><use xlink:href="#sprite-brain" y="1024" width="512" height="512"/><view id="sprite-brain-fragment" viewBox="0 1024 512 512"/><symbol id="sprite-chemistry" viewBox="0 0 128 128"><title>chemistry</title><linearGradient id="a" gradientUnits="userSpaceOnUse" x1="104.981" x2="23.019" y1="113.388" y2="31.427"><stop offset="0" stop-color="#5f69e2"/><stop offset="1" stop-color="#00b5bc"/></linearGradient><path d="M104.554 107.165L87.161 62.68l-3.932-10.059a60.333 60.333 0 01-4.159-22.059v-2.77a1.75 1.75 0 00-3.5 0v2.77a63.79 63.79 0 003.87 21.883c-6.393-.541-13.909.5-22.877 3.175a17.706 17.706 0 01-9.385.458l.854-2.184a63.813 63.813 0 004.4-23.333v-8.824H81.2a1.75 1.75 0 001.75-1.75v-9.862a1.75 1.75 0 00-1.75-1.75H46.8a1.75 1.75 0 00-1.75 1.75v9.862a1.75 1.75 0 001.75 1.75h2.135v8.825a60.333 60.333 0 01-4.159 22.059l-1.54 3.939-19.784 50.6a7.851 7.851 0 007.312 10.71h66.478a7.851 7.851 0 007.312-10.71zm-56.008-95.29h30.908v6.362H48.546zm52.289 100.6a4.291 4.291 0 01-3.593 1.9H30.758a4.351 4.351 0 01-4.052-5.936L45.89 59.371a18.343 18.343 0 004.9.654 23.677 23.677 0 006.768-1.05c9.384-2.8 17.005-3.715 23.282-2.837l2.14 5.474h-5.8a1.75 1.75 0 100 3.5h7.173l2.662 6.808h-6.248a1.75 1.75 0 000 3.5h7.617l2.662 6.808h-6.1a1.75 1.75 0 000 3.5h7.464l2.662 6.808h-6.813a1.75 1.75 0 000 3.5h8.186l2.662 6.808h-6.665a1.75 1.75 0 100 3.5h8.032l.82 2.1a4.291 4.291 0 01-.459 4.034z" fill="url(#a)"/></symbol><use xlink:href="#sprite-chemistry" y="1536" width="512" height="512"/><view id="sprite-chemistry-fragment" viewBox="0 1536 512 512"/><symbol id="sprite-light-bulb" viewBox="0 0 128 128"><title>light-bulb</title><linearGradient id="a" gradientUnits="userSpaceOnUse" x1="96.111" x2="31.889" y1="96.609" y2="32.387"><stop offset="0" stop-color="#5f69e2"/><stop offset="1" stop-color="#00b5bc"/></linearGradient><path d="M83.635 84.52a1.749 1.749 0 01.191 2.467q-.417.486-.856.953a1.75 1.75 0 01-2.545-2.4q.381-.4.743-.826a1.749 1.749 0 012.467-.194zm4.571-4.745a25.541 25.541 0 001.642-6.314 25.968 25.968 0 00-3.373-16.594A41.007 41.007 0 0180.6 36.159v-5.6a1.75 1.75 0 00-1.75-1.75h-29.7a1.75 1.75 0 00-1.75 1.75v5.608a38.725 38.725 0 01-5.631 20.293 26.066 26.066 0 0022.187 39.671 27.331 27.331 0 003-.167 25.565 25.565 0 009.57-3.036 1.75 1.75 0 00-1.687-3.066 22.085 22.085 0 01-8.267 2.624 22.568 22.568 0 01-21.822-34.2 42.216 42.216 0 006.15-22.123v-3.858h15.087v41.042a1.75 1.75 0 003.5 0V32.305H77.1v3.854a44.506 44.506 0 006.36 22.484 22.5 22.5 0 012.916 14.377 22.027 22.027 0 01-1.417 5.449 1.75 1.75 0 103.247 1.306zM64 101.706a1.75 1.75 0 00-1.75 1.75v12.669a1.75 1.75 0 003.5 0v-12.669a1.75 1.75 0 00-1.75-1.75zM30.608 68.314H17.939a1.75 1.75 0 000 3.5h12.669a1.75 1.75 0 000-3.5zm8.543-20.624a1.75 1.75 0 002.475-2.475l-4.479-4.479a1.75 1.75 0 10-2.475 2.475zm0 44.749l-4.479 4.479a1.75 1.75 0 102.475 2.475l4.479-4.479a1.75 1.75 0 00-2.475-2.475zm49.7 0a1.75 1.75 0 00-2.475 2.475l4.479 4.479a1.75 1.75 0 002.475-2.475zm2-51.7l-4.479 4.479a1.75 1.75 0 102.475 2.475l4.479-4.479a1.75 1.75 0 00-2.475-2.475zm19.207 27.578H97.392a1.75 1.75 0 000 3.5h12.668a1.75 1.75 0 000-3.5zM49.152 25.309h18.585a1.75 1.75 0 000-3.5H49.152a1.75 1.75 0 000 3.5zm29.7-3.5h-4.727a1.75 1.75 0 000 3.5h4.723a1.75 1.75 0 000-3.5zM47.4 17.6a1.75 1.75 0 011.75-1.75h9.361v-2.1a5.381 5.381 0 015.375-5.375h.224a5.381 5.381 0 015.375 5.375v2.1h9.361a1.75 1.75 0 010 3.5h-29.7A1.75 1.75 0 0147.4 17.6zm14.611-1.75h3.974v-2.1a1.877 1.877 0 00-1.875-1.875h-.224a1.877 1.877 0 00-1.875 1.875zm-3.5 20.943v36.554a1.75 1.75 0 003.5 0V36.792a1.75 1.75 0 00-3.5 0z" fill="url(#a)"/></symbol><use xlink:href="#sprite-light-bulb" y="2048" width="512" height="512"/><view id="sprite-light-bulb-fragment" viewBox="0 2048 512 512"/></svg>