<svg id="Layer_1" height="512" viewBox="0 0 128 128" width="512" xmlns="http://www.w3.org/2000/svg" xmlns:xlink="http://www.w3.org/1999/xlink" data-name="Layer 1"><linearGradient id="linear-gradient" gradientUnits="userSpaceOnUse" x1="99.703" x2="28.297" y1="89.047" y2="17.641"><stop offset="0" stop-color="#5f69e2"/><stop offset="1" stop-color="#00b5bc"/></linearGradient><path d="m65.75 84.125v13.569a1.75 1.75 0 0 1 -3.5 0v-13.569a1.75 1.75 0 0 1 3.5 0zm-17.822-71.062.4.076a1.786 1.786 0 0 0 .342.034 1.75 1.75 0 0 0 .33-3.467l-.419-.081a1.75 1.75 0 0 0 -.656 3.438zm36.793 10.837c1.575-1.576 2.667-7.335 3.095-11.879-4.373.409-10.231 1.445-11.88 3.094a6.207 6.207 0 0 0 -1.108 7.235l5-4.814a1.75 1.75 0 1 1 2.428 2.521l-13.335 12.843c-1.936 1.992-3.02 5.568-3.146 10.312h18.225a1.75 1.75 0 0 1 1.75 1.75v8.5a1.75 1.75 0 0 1 -1.75 1.746h-18.25v19.148a23.394 23.394 0 0 1 11.375 1.331v-14.229a1.75 1.75 0 0 1 3.5 0v39.792a16.625 16.625 0 0 1 -33.25 0v-46.042h-3.375a1.75 1.75 0 0 1 -1.75-1.75v-8.5a1.75 1.75 0 0 1 1.75-1.749h18.206a15.418 15.418 0 0 0 -4.35-9.906l-.492-.551a12.267 12.267 0 0 1 -15.364-1.591c-4.446-4.446-5.37-19.266-5.46-20.941a1.747 1.747 0 0 1 .51-1.332 1.785 1.785 0 0 1 1.332-.51c.068 0 1.7.094 4.051.351a1.75 1.75 0 0 1 -.379 3.479c-.7-.076-1.334-.137-1.878-.186.5 5.908 1.941 14.307 4.3 16.665a8.76 8.76 0 0 0 10.516 1.407l-6.572-7.367a1.75 1.75 0 1 1 2.611-2.33l6.592 7.39a8.759 8.759 0 0 0 -.773-11.475 7.435 7.435 0 0 0 -2.35-1.421 1.75 1.75 0 1 1 1.375-3.219 10.793 10.793 0 0 1 3.446 2.165 12.26 12.26 0 0 1 .658 16.6l.434.486a18.755 18.755 0 0 1 3.156 4.351 13.2 13.2 0 0 1 2.879-4.853l5.777-5.564a9.719 9.719 0 0 1 1.231-12.211c3.41-3.411 14.057-4.15 16.156-4.264a1.75 1.75 0 0 1 1.842 1.842c-.113 2.1-.854 12.746-4.264 16.156a9.664 9.664 0 0 1 -5.014 2.667 1.784 1.784 0 0 1 -.335.032 1.75 1.75 0 0 1 -.331-3.469 6.177 6.177 0 0 0 3.211-1.71zm-20.135 54.2a1.734 1.734 0 0 1 -.586.108c-4.27.885-8.673.009-13.122-2.6v25.642a13.125 13.125 0 0 0 26.25 0v-21.77a19.762 19.762 0 0 0 -12.542-1.38zm-2.336-22.892h-11.375v16.219c3.932 2.76 7.747 3.943 11.375 3.509zm20-8.5h-36.5v5h36.5z" fill="url(#linear-gradient)"/></svg>