<svg id="Layer_1" height="512" viewBox="0 0 128 128" width="512" xmlns="http://www.w3.org/2000/svg" xmlns:xlink="http://www.w3.org/1999/xlink" data-name="Layer 1"><linearGradient id="linear-gradient" gradientUnits="userSpaceOnUse" x1="106.105" x2="21.896" y1="105.23" y2="21.02"><stop offset="0" stop-color="#5f69e2"/><stop offset="1" stop-color="#00b5bc"/></linearGradient><path d="m69.2 85.944c12.733-5.676 17-13.855 18.422-18.519a14.706 14.706 0 0 0 0-8.6c-1.611-5.294-6.755-14.745-23.052-20.33-.045-.016-.089-.035-.136-.047-.737-.251-1.488-.5-2.271-.73-18.179-5.436-24.686-16.9-26.946-23.249a2.244 2.244 0 0 1 1.846-2.985 2.206 2.206 0 0 1 1.165.172 1.724 1.724 0 0 0 .172.088 2.27 2.27 0 0 1 1.052 1.227c1.982 5.546 7.738 15.573 24 20.436 11.493 3.436 19.848 8.961 24.841 16.423a26.4 26.4 0 0 1 4.623 12.982v.541c-.131 2.725-1.34 12.251-11.423 20.44a1.75 1.75 0 0 0 2.207 2.718c11.209-9.1 12.563-19.9 12.714-23.073v-.708a29.993 29.993 0 0 0 -5.214-14.846c-4.7-7.033-12.05-12.458-21.865-16.176 12.637-5.228 17.437-13.774 19.21-18.735a2.246 2.246 0 1 1 4.235 1.5 34.408 34.408 0 0 1 -12.2 16.087 1.75 1.75 0 1 0 2.082 2.813 37.891 37.891 0 0 0 13.418-17.73 5.745 5.745 0 1 0 -10.827-3.848 24.861 24.861 0 0 1 -3.509 6.452h-19.244a1.75 1.75 0 0 0 0 3.5h16.115a36.443 36.443 0 0 1 -14.615 8.153 36.441 36.441 0 0 1 -14.614-8.157h5.614a1.75 1.75 0 0 0 0-3.5h-8.743a24.857 24.857 0 0 1 -3.479-6.372h35.255a1.75 1.75 0 1 0 0-3.5h-38.57a5.747 5.747 0 0 0 -7.543 7.268c1.912 5.372 6.572 14.066 17.593 20.464a42.582 42.582 0 0 0 -8.853 6.98 1.75 1.75 0 0 0 2.529 2.42 40.326 40.326 0 0 1 10-7.471 55.048 55.048 0 0 0 5.608 2.27c-12.733 5.677-17 13.854-18.423 18.518a14.706 14.706 0 0 0 0 8.6c1.691 5.545 7.248 15.66 25.462 21.105 18.179 5.436 24.686 16.9 26.946 23.249a2.246 2.246 0 1 1 -4.235 1.5c-1.982-5.546-7.738-15.573-24-20.436a61.083 61.083 0 0 1 -10.522-4.179l-.045-.023a37.35 37.35 0 0 1 -14.273-12.216 26.4 26.4 0 0 1 -4.623-12.982v-.542a23.057 23.057 0 0 1 1.016-5.508 1.75 1.75 0 0 0 -3.348-1.021 26.632 26.632 0 0 0 -1.166 6.446v.708a29.993 29.993 0 0 0 5.214 14.845 39.356 39.356 0 0 0 12.705 11.792c-11.21 6.526-15.811 15.467-17.585 20.45a5.746 5.746 0 0 0 4.719 7.634 5.988 5.988 0 0 0 .708.043 5.689 5.689 0 0 0 2.083-.409h38.619a1.75 1.75 0 0 0 0-3.5h-35.271c1.768-4.885 6.872-13.586 21.222-18.03a36.441 36.441 0 0 1 14.614 8.154h-24.114a1.75 1.75 0 0 0 0 3.5h27.243a24.865 24.865 0 0 1 3.51 6.454 5.724 5.724 0 0 0 5.4 3.827 5.971 5.971 0 0 0 .707-.043 5.745 5.745 0 0 0 4.72-7.634c-2.38-6.682-9.012-18.514-26.88-24.66zm-13.945-5.8h17.487a45.5 45.5 0 0 1 -8.742 4.107 45.552 45.552 0 0 1 -8.742-4.106zm17.487-34.039h-17.485a45.5 45.5 0 0 1 8.743-4.105 45.555 45.555 0 0 1 8.742 4.105zm-27.609 23.707h22.388a1.75 1.75 0 1 0 0-3.5h-23.821a11.225 11.225 0 0 1 .025-6.467 22.854 22.854 0 0 1 6.828-10.239h26.9a24.531 24.531 0 0 1 5.414 6.833h-31.117a1.75 1.75 0 0 0 0 3.5h32.55a11.222 11.222 0 0 1 0 6.373h-9.3a1.75 1.75 0 0 0 0 3.5h7.866a24.61 24.61 0 0 1 -5.418 6.833h-26.9a24.531 24.531 0 0 1 -5.415-6.833zm-5.681 43.466a2.272 2.272 0 0 1 -1.033 1.222 1.722 1.722 0 0 0 -.246.124 2.207 2.207 0 0 1 -1.112.143 2.245 2.245 0 0 1 -1.845-2.985c1.7-4.785 6.3-13.595 17.934-19.631q2.609 1.3 5.511 2.392c-12.635 5.227-17.435 13.773-19.209 18.734zm-3.818-63.525c.1-.18.211-.361.322-.544a1.75 1.75 0 1 1 2.99 1.818c-.1.161-.192.323-.285.483a1.75 1.75 0 0 1 -3.027-1.758z" fill="url(#linear-gradient)"/></svg>