<svg id="Layer_1" height="512" viewBox="0 0 128 128" width="512" xmlns="http://www.w3.org/2000/svg" xmlns:xlink="http://www.w3.org/1999/xlink" data-name="Layer 1"><linearGradient id="linear-gradient" gradientUnits="userSpaceOnUse" x1="102.714" x2="25.286" y1="101.839" y2="24.411"><stop offset="0" stop-color="#5f69e2"/><stop offset="1" stop-color="#00b5bc"/></linearGradient><path d="m40.7 87.586a1.75 1.75 0 1 1 -2.982 1.83 15.159 15.159 0 0 1 -2.056-5.625 15.123 15.123 0 0 1 -6.4-21.089 1.75 1.75 0 0 1 3.031 1.75 11.624 11.624 0 0 0 3.36 15.271 15.122 15.122 0 0 1 14.988-13.3 1.75 1.75 0 0 1 0 3.5 11.621 11.621 0 0 0 -11.607 11.61q0 .47.036.931a1.738 1.738 0 0 1 -.005.26 11.649 11.649 0 0 0 1.635 4.862zm4.131 4.014c-.192-.11-.38-.227-.565-.347a1.75 1.75 0 0 0 -1.914 2.93q.363.239.739.454a1.75 1.75 0 1 0 1.74-3.037zm47.6-9.289c.013-.259.031-.518.031-.78a15.125 15.125 0 0 0 -15.104-15.106 1.75 1.75 0 0 0 0 3.5 11.621 11.621 0 0 1 11.608 11.608q0 .47-.036.931a1.739 1.739 0 0 0 .006.278 11.625 11.625 0 0 1 -23.186-1.236v-40.079a11.812 11.812 0 0 0 -23.543-1.388 13.168 13.168 0 0 0 -8.384 19.427 1.739 1.739 0 0 0 .2.373 12.319 12.319 0 0 0 22.255-7.282 1.75 1.75 0 0 0 -3.5 0 8.812 8.812 0 0 1 -15.833 5.332 9.682 9.682 0 0 1 7.13-14.632 1.839 1.839 0 0 0 1.535-1.829 8.318 8.318 0 0 1 16.637 0v40.078a11.649 11.649 0 0 1 -11.633 11.636q-.577 0-1.14-.056a1.75 1.75 0 1 0 -.34 3.484c.488.047.986.071 1.479.071a15.144 15.144 0 0 0 13.387-8.091 15.122 15.122 0 0 0 28.46-5.8 1.738 1.738 0 0 0 -.025-.437zm-23.013-47.783a8.323 8.323 0 0 1 12.972 6.8c0 .047-.008.14-.008.187a1.75 1.75 0 0 0 1.54 1.737 9.682 9.682 0 0 1 7.13 14.632 8.812 8.812 0 0 1 -15.833-5.332 1.75 1.75 0 0 0 -3.5 0 12.3 12.3 0 0 0 21.134 8.584 11.611 11.611 0 0 1 2.383 15.635 1.75 1.75 0 1 0 2.891 1.973 15.114 15.114 0 0 0 -3.312-20.519 13.18 13.18 0 0 0 -9.009-18.187 11.82 11.82 0 0 0 -18.347-8.414 1.75 1.75 0 1 0 1.959 2.9zm-5.418-12.153a1.75 1.75 0 0 0 1.75-1.75v-10.5a1.75 1.75 0 0 0 -3.5 0v10.5a1.75 1.75 0 0 0 1.75 1.75zm36.239 2.036-7.425 7.425a1.75 1.75 0 1 0 2.475 2.475l7.425-7.425a1.75 1.75 0 1 0 -2.475-2.475zm16.761 36.964h-10.5a1.75 1.75 0 0 0 0 3.5h10.5a1.75 1.75 0 1 0 0-3.5zm-21.711 30.564a1.75 1.75 0 0 0 -2.475 2.475l7.425 7.425a1.75 1.75 0 0 0 2.475-2.475zm-31.289 11.936a1.75 1.75 0 0 0 -1.75 1.75v10.5a1.75 1.75 0 0 0 3.5 0v-10.5a1.75 1.75 0 0 0 -1.75-1.75zm-31.289-11.936-7.425 7.425a1.75 1.75 0 1 0 2.475 2.475l7.425-7.425a1.75 1.75 0 0 0 -2.475-2.475zm-11.211-30.564h-10.5a1.75 1.75 0 0 0 0 3.5h10.5a1.75 1.75 0 0 0 0-3.5zm11.211-27.064a1.75 1.75 0 0 0 2.475-2.475l-7.425-7.425a1.75 1.75 0 0 0 -2.475 2.475z" fill="url(#linear-gradient)"/></svg>