<svg id="Layer_1" height="512" viewBox="0 0 128 128" width="512" xmlns="http://www.w3.org/2000/svg" xmlns:xlink="http://www.w3.org/1999/xlink" data-name="Layer 1"><linearGradient id="linear-gradient" gradientUnits="userSpaceOnUse" x1="104.981" x2="23.019" y1="113.388" y2="31.427"><stop offset="0" stop-color="#5f69e2"/><stop offset="1" stop-color="#00b5bc"/></linearGradient><path d="m104.554 107.165-17.393-44.485-3.932-10.059a60.333 60.333 0 0 1 -4.159-22.059v-2.77a1.75 1.75 0 0 0 -3.5 0v2.77a63.79 63.79 0 0 0 3.87 21.883c-6.393-.541-13.909.5-22.877 3.175a17.706 17.706 0 0 1 -9.385.458l.854-2.184a63.813 63.813 0 0 0 4.4-23.333v-8.824h28.768a1.75 1.75 0 0 0 1.75-1.75v-9.862a1.75 1.75 0 0 0 -1.75-1.75h-34.4a1.75 1.75 0 0 0 -1.75 1.75v9.862a1.75 1.75 0 0 0 1.75 1.75h2.135v8.825a60.333 60.333 0 0 1 -4.159 22.059l-1.54 3.939-19.784 50.6a7.851 7.851 0 0 0 7.312 10.71h66.478a7.851 7.851 0 0 0 7.312-10.71zm-56.008-95.29h30.908v6.362h-30.908zm52.289 100.6a4.291 4.291 0 0 1 -3.593 1.9h-66.484a4.351 4.351 0 0 1 -4.052-5.936l19.184-49.068a18.343 18.343 0 0 0 4.9.654 23.677 23.677 0 0 0 6.768-1.05c9.384-2.8 17.005-3.715 23.282-2.837l2.14 5.474h-5.8a1.75 1.75 0 1 0 0 3.5h7.173l2.662 6.808h-6.248a1.75 1.75 0 0 0 0 3.5h7.617l2.662 6.808h-6.1a1.75 1.75 0 0 0 0 3.5h7.464l2.662 6.808h-6.813a1.75 1.75 0 0 0 0 3.5h8.186l2.662 6.808h-6.665a1.75 1.75 0 1 0 0 3.5h8.032l.82 2.1a4.291 4.291 0 0 1 -.459 4.034z" fill="url(#linear-gradient)"/></svg>