<svg id="Layer_1" height="512" viewBox="0 0 128 128" width="512" xmlns="http://www.w3.org/2000/svg" xmlns:xlink="http://www.w3.org/1999/xlink" data-name="Layer 1"><linearGradient id="linear-gradient" gradientUnits="userSpaceOnUse" x1="96.111" x2="31.889" y1="96.609" y2="32.387"><stop offset="0" stop-color="#5f69e2"/><stop offset="1" stop-color="#00b5bc"/></linearGradient><path d="m83.635 84.52a1.749 1.749 0 0 1 .191 2.467q-.417.486-.856.953a1.75 1.75 0 0 1 -2.545-2.4q.381-.4.743-.826a1.749 1.749 0 0 1 2.467-.194zm4.571-4.745a25.541 25.541 0 0 0 1.642-6.314 25.968 25.968 0 0 0 -3.373-16.594 41.007 41.007 0 0 1 -5.875-20.708v-5.6a1.75 1.75 0 0 0 -1.75-1.75h-29.7a1.75 1.75 0 0 0 -1.75 1.75v5.608a38.725 38.725 0 0 1 -5.631 20.293 26.066 26.066 0 0 0 22.187 39.671 27.331 27.331 0 0 0 3-.167 25.565 25.565 0 0 0 9.57-3.036 1.75 1.75 0 0 0 -1.687-3.066 22.085 22.085 0 0 1 -8.267 2.624 22.568 22.568 0 0 1 -21.822-34.2 42.216 42.216 0 0 0 6.15-22.123v-3.858h15.087v41.042a1.75 1.75 0 0 0 3.5 0v-41.042h7.613v3.854a44.506 44.506 0 0 0 6.36 22.484 22.5 22.5 0 0 1 2.916 14.377 22.027 22.027 0 0 1 -1.417 5.449 1.75 1.75 0 1 0 3.247 1.306zm-24.206 21.931a1.75 1.75 0 0 0 -1.75 1.75v12.669a1.75 1.75 0 0 0 3.5 0v-12.669a1.75 1.75 0 0 0 -1.75-1.75zm-33.392-33.392h-12.669a1.75 1.75 0 0 0 0 3.5h12.669a1.75 1.75 0 0 0 0-3.5zm8.543-20.624a1.75 1.75 0 0 0 2.475-2.475l-4.479-4.479a1.75 1.75 0 1 0 -2.475 2.475zm0 44.749-4.479 4.479a1.75 1.75 0 1 0 2.475 2.475l4.479-4.479a1.75 1.75 0 0 0 -2.475-2.475zm49.7 0a1.75 1.75 0 0 0 -2.475 2.475l4.479 4.479a1.75 1.75 0 0 0 2.475-2.475zm2-51.7-4.479 4.479a1.75 1.75 0 1 0 2.475 2.475l4.479-4.479a1.75 1.75 0 0 0 -2.475-2.475zm19.207 27.578h-12.666a1.75 1.75 0 0 0 0 3.5h12.668a1.75 1.75 0 0 0 0-3.5zm-60.906-43.008h18.585a1.75 1.75 0 0 0 0-3.5h-18.585a1.75 1.75 0 0 0 0 3.5zm29.7-3.5h-4.727a1.75 1.75 0 0 0 0 3.5h4.723a1.75 1.75 0 0 0 0-3.5zm-31.452-4.209a1.75 1.75 0 0 1 1.75-1.75h9.361v-2.1a5.381 5.381 0 0 1 5.375-5.375h.224a5.381 5.381 0 0 1 5.375 5.375v2.1h9.361a1.75 1.75 0 0 1 0 3.5h-29.7a1.75 1.75 0 0 1 -1.746-1.75zm14.611-1.75h3.974v-2.1a1.877 1.877 0 0 0 -1.875-1.875h-.224a1.877 1.877 0 0 0 -1.875 1.875zm-3.5 20.943v36.554a1.75 1.75 0 0 0 3.5 0v-36.555a1.75 1.75 0 0 0 -3.5 0z" fill="url(#linear-gradient)"/></svg>